<svg width="119" height="24" viewBox="0 0 119 24" fill="none" xmlns="http://www.w3.org/2000/svg">
<path d="M28.2303 11.0784C28.2019 10.9582 28.1443 10.8469 28.0625 10.7543C27.9808 10.6618 27.8774 10.5908 27.7616 10.5478L22.3607 8.52188L23.735 1.64719C23.7662 1.48746 23.7445 1.32194 23.6733 1.17561C23.6021 1.02928 23.4852 0.910076 23.3403 0.835989C23.1954 0.761903 23.0304 0.736953 22.8701 0.764904C22.7097 0.792855 22.5629 0.87219 22.4516 0.990938L11.9516 12.2409C11.8663 12.3308 11.8046 12.4404 11.772 12.5599C11.7394 12.6794 11.737 12.8052 11.7648 12.9259C11.7927 13.0466 11.85 13.1585 11.9317 13.2517C12.0133 13.3448 12.1168 13.4163 12.2328 13.4597L17.6357 15.4856L16.265 22.3528C16.2339 22.5125 16.2556 22.6781 16.3268 22.8244C16.398 22.9707 16.5149 23.0899 16.6597 23.164C16.8046 23.2381 16.9697 23.263 17.13 23.2351C17.2903 23.2071 17.4372 23.1278 17.5485 23.0091L28.0485 11.7591C28.1322 11.6692 28.1926 11.5601 28.2243 11.4414C28.256 11.3228 28.2581 11.1981 28.2303 11.0784ZM18.2535 20.0625L19.235 15.1519C19.2702 14.9777 19.2423 14.7967 19.1565 14.6412C19.0706 14.4856 18.9324 14.3656 18.7663 14.3025L13.8125 12.4416L21.7457 3.94219L20.765 8.85281C20.7299 9.02697 20.7577 9.20795 20.8436 9.3635C20.9294 9.51905 21.0677 9.63907 21.2338 9.70219L26.1838 11.5584L18.2535 20.0625Z" fill="#FAFAFA"/>
<path d="M40.5568 8.86435V7.31818H48.6804V8.86435H45.5334V17.5H43.7038V8.86435H40.5568ZM52.4402 17.6491C51.6745 17.6491 51.0133 17.4901 50.4565 17.1719C49.903 16.8504 49.4771 16.3963 49.1788 15.8097C48.8805 15.2197 48.7314 14.5253 48.7314 13.7266C48.7314 12.9411 48.8805 12.2517 49.1788 11.6584C49.4804 11.0618 49.9013 10.5978 50.4416 10.2663C50.9818 9.93158 51.6165 9.7642 52.3457 9.7642C52.8163 9.7642 53.2605 9.84044 53.6781 9.9929C54.099 10.142 54.4702 10.3741 54.7917 10.6889C55.1165 11.0038 55.3717 11.4048 55.5574 11.892C55.743 12.3759 55.8358 12.9527 55.8358 13.6222V14.174H49.5765V12.9609H54.1106C54.1073 12.6162 54.0327 12.3097 53.8869 12.0412C53.7411 11.7694 53.5372 11.5556 53.2754 11.3999C53.0169 11.2441 52.7153 11.1662 52.3706 11.1662C52.0027 11.1662 51.6795 11.2557 51.4011 11.4347C51.1227 11.6103 50.9056 11.8423 50.7498 12.1307C50.5974 12.4157 50.5195 12.7289 50.5162 13.0703V14.1293C50.5162 14.5734 50.5974 14.9545 50.7598 15.2727C50.9222 15.5876 51.1492 15.8295 51.4409 15.9986C51.7325 16.1643 52.0739 16.2472 52.465 16.2472C52.7269 16.2472 52.9638 16.2107 53.176 16.1378C53.3881 16.0616 53.572 15.9505 53.7278 15.8047C53.8836 15.6589 54.0012 15.4782 54.0808 15.2628L55.7612 15.4517C55.6551 15.8958 55.4529 16.2836 55.1547 16.6151C54.8597 16.9432 54.4818 17.1984 54.0211 17.3807C53.5604 17.5597 53.0334 17.6491 52.4402 17.6491ZM60.6893 17.6491C59.927 17.6491 59.2724 17.4818 58.7255 17.147C58.1819 16.8123 57.7627 16.3499 57.4677 15.7599C57.176 15.1667 57.0302 14.4839 57.0302 13.7116C57.0302 12.9361 57.1793 12.2517 57.4776 11.6584C57.7759 11.0618 58.1969 10.5978 58.7404 10.2663C59.2873 9.93158 59.9336 9.7642 60.6793 9.7642C61.2991 9.7642 61.8477 9.87855 62.3249 10.1072C62.8055 10.3326 63.1883 10.6525 63.4734 11.0668C63.7584 11.4777 63.9208 11.9583 63.9606 12.5085H62.2404C62.1708 12.1406 62.0051 11.834 61.7433 11.5888C61.4847 11.3402 61.1384 11.2159 60.7042 11.2159C60.3363 11.2159 60.0131 11.3153 59.7347 11.5142C59.4563 11.7098 59.2392 11.9915 59.0835 12.3594C58.931 12.7273 58.8548 13.1681 58.8548 13.6818C58.8548 14.2022 58.931 14.6496 59.0835 15.0241C59.2359 15.3954 59.4497 15.6821 59.7248 15.8842C60.0032 16.0831 60.3297 16.1825 60.7042 16.1825C60.9693 16.1825 61.2063 16.1328 61.4151 16.0334C61.6272 15.9306 61.8046 15.7831 61.9471 15.5909C62.0896 15.3987 62.1874 15.165 62.2404 14.8899H63.9606C63.9175 15.4302 63.7584 15.9091 63.4833 16.3267C63.2082 16.741 62.8337 17.0658 62.3597 17.3011C61.8858 17.5331 61.329 17.6491 60.6893 17.6491ZM67.2381 13.0256V17.5H65.4384V7.31818H67.1983V11.1612H67.2878C67.4668 10.7304 67.7435 10.3906 68.1181 10.142C68.4959 9.89015 68.9765 9.7642 69.5598 9.7642C70.0901 9.7642 70.5525 9.87524 70.9469 10.0973C71.3413 10.3194 71.6462 10.6442 71.8617 11.0717C72.0804 11.4993 72.1898 12.0213 72.1898 12.6378V17.5H70.3901V12.9162C70.3901 12.4025 70.2575 12.0031 69.9924 11.718C69.7305 11.4297 69.3626 11.2855 68.8887 11.2855C68.5705 11.2855 68.2855 11.3551 68.0336 11.4943C67.785 11.6302 67.5894 11.8274 67.4469 12.0859C67.3077 12.3445 67.2381 12.6577 67.2381 13.0256ZM75.9483 7.31818V17.5H74.1039V7.31818H75.9483ZM79.6658 13.0256V17.5H77.8661V9.86364H79.5863V11.1612H79.6758C79.8514 10.7337 80.1315 10.3939 80.516 10.142C80.9038 9.89015 81.3827 9.7642 81.9528 9.7642C82.4798 9.7642 82.9388 9.87689 83.3299 10.1023C83.7243 10.3277 84.0292 10.6541 84.2447 11.0817C84.4634 11.5092 84.5711 12.0279 84.5678 12.6378V17.5H82.7681V12.9162C82.7681 12.4058 82.6355 12.0064 82.3704 11.718C82.1085 11.4297 81.7456 11.2855 81.2816 11.2855C80.9667 11.2855 80.6867 11.3551 80.4414 11.4943C80.1995 11.6302 80.0089 11.8274 79.8697 12.0859C79.7338 12.3445 79.6658 12.6577 79.6658 13.0256ZM88.1971 13.0256V17.5H86.3974V9.86364H88.1175V11.1612H88.207C88.3827 10.7337 88.6628 10.3939 89.0472 10.142C89.435 9.89015 89.9139 9.7642 90.484 9.7642C91.011 9.7642 91.4701 9.87689 91.8612 10.1023C92.2556 10.3277 92.5605 10.6541 92.7759 11.0817C92.9947 11.5092 93.1024 12.0279 93.0991 12.6378V17.5H91.2994V12.9162C91.2994 12.4058 91.1668 12.0064 90.9016 11.718C90.6398 11.4297 90.2769 11.2855 89.8129 11.2855C89.498 11.2855 89.2179 11.3551 88.9727 11.4943C88.7307 11.6302 88.5401 11.8274 88.4009 12.0859C88.265 12.3445 88.1971 12.6577 88.1971 13.0256ZM98.2596 17.6491C97.5138 17.6491 96.8675 17.4851 96.3207 17.157C95.7738 16.8288 95.3496 16.3698 95.0479 15.7798C94.7496 15.1899 94.6005 14.5005 94.6005 13.7116C94.6005 12.9228 94.7496 12.2318 95.0479 11.6385C95.3496 11.0452 95.7738 10.5845 96.3207 10.2564C96.8675 9.92827 97.5138 9.7642 98.2596 9.7642C99.0053 9.7642 99.6516 9.92827 100.199 10.2564C100.745 10.5845 101.168 11.0452 101.466 11.6385C101.768 12.2318 101.919 12.9228 101.919 13.7116C101.919 14.5005 101.768 15.1899 101.466 15.7798C101.168 16.3698 100.745 16.8288 100.199 17.157C99.6516 17.4851 99.0053 17.6491 98.2596 17.6491ZM98.2695 16.2074C98.6739 16.2074 99.012 16.0964 99.2837 15.8743C99.5555 15.6489 99.7577 15.3473 99.8903 14.9695C100.026 14.5916 100.094 14.1707 100.094 13.7067C100.094 13.2393 100.026 12.8168 99.8903 12.4389C99.7577 12.0578 99.5555 11.7545 99.2837 11.5291C99.012 11.3037 98.6739 11.1911 98.2695 11.1911C97.8552 11.1911 97.5105 11.3037 97.2354 11.5291C96.9637 11.7545 96.7598 12.0578 96.6239 12.4389C96.4914 12.8168 96.4251 13.2393 96.4251 13.7067C96.4251 14.1707 96.4914 14.5916 96.6239 14.9695C96.7598 15.3473 96.9637 15.6489 97.2354 15.8743C97.5105 16.0964 97.8552 16.2074 98.2695 16.2074ZM110.007 9.86364L107.288 17.5H105.299L102.58 9.86364H104.499L106.254 15.5362H106.333L108.093 9.86364H110.007Z" fill="#FAFAFA"/>
</svg>
